<svg width="34" height="34" viewBox="0 0 34 34" fill="none" xmlns="http://www.w3.org/2000/svg">
<path d="M16.7175 33L1 27.9562L8.02549 15.9072L16.7175 1L25.722 15.9072L33 27.9562L16.7175 33Z" fill="url(#paint0_linear_220_69)"/>
<path d="M1 27.9562L16.7175 33M1 27.9562L8.02549 15.9072M1 27.9562L12.3715 24.4536M16.7175 1L8.02549 15.9072M16.7175 1L25.722 15.9072M16.7175 1V14.5061M16.7175 33L33 27.9562M16.7175 33V17M16.7175 33L12.3715 24.4536M16.7175 33L21.2197 24.4536M33 27.9562L25.722 15.9072M33 27.9562L21.2197 24.4536M8.02549 15.9072L16.7175 17M8.02549 15.9072L12.3715 24.4536M8.02549 15.9072L16.7175 14.5061M25.722 15.9072L16.7175 17M25.722 15.9072L21.2197 24.4536M25.722 15.9072L16.7175 14.5061M16.7175 17V14.5061" stroke="#FAFAFA" stroke-width="0.2"/>
<defs>
<linearGradient id="paint0_linear_220_69" x1="17" y1="1" x2="17" y2="33" gradientUnits="userSpaceOnUse">
<stop stop-color="#1E0094"/>
<stop offset="1" stop-color="#EAF4FF"/>
</linearGradient>
</defs>
</svg>
